<svg width="33" height="32" viewBox="0 0 33 32" fill="none" xmlns="http://www.w3.org/2000/svg">
<g clip-path="url(#clip0_30_11066)">
<path d="M16.5 2.6665C9.13996 2.6665 3.16663 8.63984 3.16663 15.9998C3.16663 23.3598 9.13996 29.3332 16.5 29.3332C23.86 29.3332 29.8333 23.3598 29.8333 15.9998C29.8333 8.63984 23.86 2.6665 16.5 2.6665ZM13.8333 21.3332L9.28663 16.7865C8.76663 16.2665 8.76663 15.4265 9.28663 14.9065C9.80663 14.3865 10.6466 14.3865 11.1666 14.9065L14.78 18.5065L21.2866 11.9998C21.8066 11.4798 22.6466 11.4798 23.1666 11.9998C23.6866 12.5198 23.6866 13.3598 23.1666 13.8798L15.7133 21.3332C15.2066 21.8532 14.3533 21.8532 13.8333 21.3332Z" fill="#AC9592"/>
<path d="M9.28587 16.786L13.8325 21.3327C14.3525 21.8527 15.2059 21.8527 15.7125 21.3327L23.1659 13.8794C23.6859 13.3594 23.6859 12.5194 23.1659 11.9994C22.6459 11.4794 21.8059 11.4794 21.2859 11.9994L14.7792 18.506L11.1659 14.906C10.6459 14.386 9.80587 14.386 9.28587 14.906C8.76587 15.426 8.76587 16.266 9.28587 16.786Z" fill="white"/>
</g>
<defs>
<clipPath id="clip0_30_11066">
<rect width="32" height="32" fill="white" transform="translate(0.5)"/>
</clipPath>
</defs>
</svg> 